<?xml version="1.0" encoding="UTF-8"?>
<svg id="Layer_1" data-name="Layer 1" xmlns="http://www.w3.org/2000/svg" version="1.1" viewBox="0 0 627.5 770.5">
  <defs>
    <style>
      .cls-1 {
        fill: #badaff;
      }

      .cls-1, .cls-2, .cls-3, .cls-4, .cls-5, .cls-6, .cls-7 {
        stroke-width: 0px;
      }

      .cls-2 {
        fill: none;
      }

      .cls-3 {
        fill: #8ec2ff;
      }

      .cls-4 {
        fill: #4092ff;
      }

      .cls-5 {
        fill: #1d1d1b;
      }

      .cls-6 {
        fill: #fff;
      }

      .cls-7 {
        fill: #005adf;
      }
    </style>
  </defs>
  <g>
    <path class="cls-5" d="M91.2,650.1c0,3.3-.6,6.8-1.7,10.4-1.2,3.6-3.1,6.9-5.7,9.9-2.7,3-6.1,5.4-10.4,7.3-4.3,1.9-9.6,2.8-15.9,2.8h-13.5v36.3h-12.4v-97h27.2c6,0,11,.9,15.2,2.8,4.1,1.9,7.5,4.3,10.1,7.3,2.6,3,4.4,6.3,5.6,9.9,1.1,3.6,1.7,7,1.7,10.3ZM78.6,650.1c0-6-1.8-10.7-5.4-14.1s-8.5-5.2-14.8-5.2h-14.5v38.6h13.2c6.9,0,12.2-1.7,15.9-5.2,3.7-3.5,5.5-8.2,5.5-14.1Z"/>
    <path class="cls-5" d="M115.1,716.7h-12.3v-103.5h12.3v65.4l29.9-30.9h14.5l-30.1,30.9,34.1,38.1h-16l-32.4-36.7v36.7Z"/>
    <path class="cls-5" d="M221.2,657c1.1.9,2.1,2,2.9,3.2.8,1.2,1.5,2.6,1.9,3.9.5,1.4.8,2.7,1,4.1.2,1.3.3,2.6.3,3.7,0,4.8-.9,8.8-2.7,12-1.8,3.2-4.1,5.8-6.9,7.7-2.8,1.9-6,3.3-9.5,4.1-3.5.8-7.1,1.2-10.6,1.2s-4.8-.2-7.5-.6c-2.7-.4-5.1-1-7.2-1.9-.6.5-1.5,1.3-2.6,2.5-1.1,1.2-1.7,2.7-1.7,4.6s.2,1.8.5,2.7c.3.9,1,1.7,2,2.3,1,.7,2.4,1.2,4.2,1.7,1.8.4,4.2.7,7.2.8l14.5.3c3.5,0,6.8.4,10,.8,3.2.5,6,1.3,8.3,2.6,2.4,1.3,4.3,3.1,5.7,5.3,1.4,2.3,2.1,5.2,2.1,8.8,0,6.4-3.3,11.7-10,15.8-6.7,4.1-16.2,6.1-28.5,6.1s-7.2-.3-10.9-.8c-3.7-.6-7-1.5-10-2.9-3-1.4-5.5-3.2-7.4-5.6-1.9-2.3-2.9-5.3-2.9-8.9s.9-6.1,2.7-8.6c1.8-2.5,3.9-4.7,6.4-6.8-2.3-1.6-3.8-3.4-4.6-5.5-.7-2.1-1.1-4-1.1-5.7,0-3.2.9-6,2.8-8.3,1.8-2.3,3.7-4.2,5.5-5.8-2.4-2.1-4.3-4.7-5.6-7.7-1.3-3-2-6.6-2-10.8s.9-8.7,2.6-11.9c1.7-3.3,4-5.9,6.9-7.9,2.8-2,6-3.4,9.6-4.3,3.5-.9,7.1-1.4,10.7-1.4s4.1,0,5.7.3c1.6.2,3,.4,4.3.6,1.3.2,2.5.4,3.7.6,1.2.2,2.5.3,3.9.3h18.8v9.2h-12.8ZM194.5,720.3c-3.4,0-6.3-.3-8.6-.6-2.3-.3-3.8-.5-4.4-.7-1.6,1.1-2.8,2.5-3.7,4.1-.9,1.7-1.4,3.5-1.4,5.7s.6,3.8,1.7,5c1.1,1.2,2.6,2.2,4.5,3,1.9.7,4,1.2,6.4,1.4,2.4.2,4.8.3,7.3.3s6.7-.2,9.7-.6c2.9-.4,5.5-1.1,7.7-2,2.2-.9,3.8-2.1,5-3.5s1.8-3,1.8-4.8-.1-1.7-.4-2.6c-.3-.9-.8-1.6-1.7-2.3-.8-.6-2.1-1.2-3.7-1.7-1.7-.5-3.9-.7-6.6-.7l-13.5-.3ZM197.8,688c2.2,0,4.4-.3,6.5-1,2.1-.6,4-1.6,5.6-3,1.6-1.3,2.9-3,3.9-5.1,1-2.1,1.5-4.6,1.5-7.5s-.5-5.5-1.5-7.5c-1-2.1-2.3-3.8-3.9-5.1-1.6-1.3-3.5-2.3-5.6-3-2.1-.6-4.3-1-6.5-1s-4.4.3-6.5,1c-2.1.6-4,1.6-5.6,3-1.6,1.3-2.9,3-3.9,5.1-1,2.1-1.5,4.6-1.5,7.5s.5,5.5,1.5,7.5c1,2.1,2.3,3.8,3.9,5.1,1.6,1.3,3.5,2.3,5.6,3,2.1.6,4.3,1,6.5,1Z"/>
    <path class="cls-5" d="M243.7,701.8c2.3,1.2,5.5,2.5,9.5,4,4,1.5,8.8,2.2,14.4,2.2s5.5-.3,7.5-.8c2-.5,3.5-1.2,4.7-2.1,1.1-.9,2-1.9,2.5-3,.5-1.1.8-2.4.8-3.8,0-2.5-.9-4.6-2.8-6.3-1.9-1.7-5.2-3-9.9-3.9l-8.4-1.7c-2.9-.6-5.7-1.3-8.2-2.3-2.5-1-4.7-2.3-6.6-3.9-1.8-1.6-3.3-3.5-4.3-5.7-1.1-2.2-1.6-4.8-1.6-7.9,0-6.3,2.4-11.3,7.3-15,4.9-3.8,11.4-5.7,19.6-5.7s10.1.6,14.4,1.9c4.2,1.3,7.7,2.7,10.4,4.3l-3.9,9.1c-.6-.4-1.7-.8-3.1-1.4-1.4-.6-3.1-1.1-5-1.6-1.9-.5-3.9-.9-6.1-1.3-2.2-.4-4.4-.6-6.6-.6-5.1,0-8.8.9-11.2,2.6-2.4,1.7-3.6,4.1-3.6,7s.8,4.5,2.6,5.9c1.7,1.5,5.1,2.7,10.1,3.6l8.6,1.7c6.6,1.3,11.8,3.4,15.5,6.3,3.7,2.9,5.5,7.5,5.5,13.7s-2.4,11.6-7.2,15.5-11.7,5.8-20.6,5.8-12.2-.8-17-2.5c-4.8-1.7-8.6-3.4-11.4-5.2l4.4-9Z"/>
    <path class="cls-5" d="M360.9,713.5c-.5.3-1.3.7-2.6,1.3-1.3.6-2.9,1.1-4.8,1.7s-4.2,1-6.7,1.5c-2.5.4-5.4.6-8.5.6-11.5,0-20.1-3.2-25.9-9.7-5.8-6.4-8.7-15.4-8.7-26.8s.7-10.2,2.1-14.7c1.4-4.5,3.4-8.3,6.1-11.5,2.7-3.2,6-5.6,9.9-7.4,3.9-1.7,8.4-2.6,13.6-2.6s8.9.7,12.6,2.1c3.7,1.4,6.8,3.7,9.4,6.7,2.6,3,4.6,6.9,5.9,11.7,1.4,4.7,2.1,10.4,2.1,17v2.2h-49.1c.5,6.5,2.5,11.7,6.2,15.8,3.7,4,9.3,6,17,6s8.7-.4,11.8-1.2c3.1-.8,5.3-1.5,6.6-1.9l3.3,9.2ZM352.5,675.8c-.5-6.2-2-10.9-4.6-14.4-2.6-3.4-6.8-5.1-12.6-5.1s-10.3,1.7-13.2,5.2c-2.9,3.4-4.8,8.2-5.7,14.3h36.2Z"/>
    <path class="cls-5" d="M417.1,658.2c-.5-.2-1.4-.4-2.7-.6-1.3-.2-2.7-.3-4.1-.3-6.5,0-11.7,2.7-15.5,8.1-3.8,5.4-5.7,12.9-5.7,22.4v28.8h-12.3v-69h11.3l.6,11.7c.8-1.6,1.9-3.1,3.2-4.6,1.3-1.5,2.9-2.9,4.8-4,1.8-1.1,3.9-2.1,6.3-2.8,2.3-.7,4.9-1.1,7.8-1.1s2.8.1,4.5.3c1.7.2,2.7.4,3,.5l-1.1,10.5Z"/>
    <path class="cls-5" d="M421.8,647.7h13.1l19.9,57,19.6-57h12.4l-25.5,69h-13.8l-25.7-69Z"/>
    <path class="cls-5" d="M548,713.5c-.5.3-1.3.7-2.6,1.3-1.3.6-2.9,1.1-4.8,1.7s-4.2,1-6.7,1.5c-2.5.4-5.4.6-8.5.6-11.5,0-20.1-3.2-25.9-9.7-5.8-6.4-8.7-15.4-8.7-26.8s.7-10.2,2.1-14.7c1.4-4.5,3.4-8.3,6.1-11.5,2.7-3.2,6-5.6,9.9-7.4,3.9-1.7,8.4-2.6,13.6-2.6s8.9.7,12.6,2.1c3.7,1.4,6.8,3.7,9.4,6.7s4.6,6.9,5.9,11.7c1.4,4.7,2.1,10.4,2.1,17v2.2h-49.1c.5,6.5,2.5,11.7,6.2,15.8s9.3,6,17,6,8.7-.4,11.8-1.2,5.3-1.5,6.6-1.9l3.3,9.2ZM539.6,675.8c-.5-6.2-2-10.9-4.6-14.4-2.6-3.4-6.8-5.1-12.6-5.1s-10.3,1.7-13.2,5.2c-2.9,3.4-4.8,8.2-5.7,14.3h36.2Z"/>
    <path class="cls-5" d="M604.2,658.2c-.5-.2-1.4-.4-2.7-.6-1.3-.2-2.7-.3-4.1-.3-6.5,0-11.7,2.7-15.5,8.1-3.8,5.4-5.7,12.9-5.7,22.4v28.8h-12.3v-69h11.3l.6,11.7c.8-1.6,1.9-3.1,3.2-4.6,1.3-1.5,2.9-2.9,4.8-4,1.8-1.1,3.9-2.1,6.3-2.8,2.3-.7,4.9-1.1,7.8-1.1s2.8.1,4.5.3c1.7.2,2.7.4,3,.5l-1.1,10.5Z"/>
  </g>
  <path class="cls-5" d="M430.7,91.6c6.1,0,11.7,3.2,14.7,8.5l116.9,202.5c3,5.2,3,11.7,0,17l-116.9,202.5c-3,5.2-8.6,8.5-14.7,8.5h-233.8c-6.1,0-11.7-3.2-14.7-8.5l-116.9-202.5c-3-5.2-3-11.7,0-17l116.9-202.5c3-5.2,8.6-8.5,14.7-8.5h233.8M430.7,77.6h-233.8c-11,0-21.3,5.9-26.8,15.5l-116.9,202.5c-5.5,9.6-5.5,21.4,0,31l116.9,202.5c5.5,9.6,15.8,15.5,26.8,15.5h233.8c11,0,21.3-5.9,26.8-15.5l116.9-202.5c5.5-9.6,5.5-21.4,0-31l-116.9-202.5c-5.5-9.6-15.8-15.5-26.8-15.5h0Z"/>
  <g>
    <path class="cls-1" d="M181.4,186.9l30.5-52.3h61.6c10.9,0,14.7,14.5,5.2,19.8l-83,47c-9.4,5.3-19.8-5.2-14.4-14.6Z"/>
    <path class="cls-1" d="M446.3,186.9l-30.5-52.3h-61.6c-10.9,0-14.7,14.5-5.2,19.8l83,47c9.4,5.3,19.8-5.2,14.4-14.6Z"/>
    <path class="cls-1" d="M446.5,434.9l-30.5,52.3h-61.6c-10.9,0-14.7-14.5-5.2-19.8l83-47c9.4-5.3,19.8,5.2,14.4,14.6Z"/>
    <path class="cls-1" d="M181.5,434.9l30.5,52.3h61.6c10.9,0,14.7-14.5,5.2-19.8l-83-47c-9.4-5.3-19.8,5.2-14.4,14.6Z"/>
    <path class="cls-1" d="M161.6,260.7v100.6c0,10.9-14.3,14.7-19.7,5.3l-31.9-55.5,31.8-55.6c5.4-9.4,19.8-5.6,19.8,5.3Z"/>
    <path class="cls-1" d="M466.4,260.7v100.6c0,10.9,14.3,14.7,19.7,5.3l31.9-55.5-31.8-55.6c-5.4-9.4-19.8-5.6-19.8,5.3Z"/>
  </g>
  <g>
    <polygon class="cls-2" points="351.5 289.2 313.8 311 351.5 289.2 351.5 289.2"/>
    <polygon class="cls-3" points="239.8 223.9 201.3 246.1 313.8 311 351.5 289.2 239.8 223.9"/>
    <path class="cls-3" d="M426.2,246.1l-103.9-60c-5.2-3-11.7-3-17,0l-28.6,16.5,111.8,65.3,37.8-21.8Z"/>
    <path class="cls-7" d="M201.3,246v120.1c0,6.1,3.2,11.7,8.5,14.7l66,38.1,38,21.9v-129.9l-112.5-64.9Z"/>
    <rect class="cls-6" x="348.7" y="278.5" width="42.6" transform="translate(-89.7 222.3) rotate(-30)"/>
    <polygon class="cls-6" points="388.4 267.9 276.7 202.6 239.8 223.9 351.5 289.2 388.4 267.9"/>
    <path class="cls-4" d="M388.4,267.9l-36.9,21.3-37.8,21.8v129.9l104-60.1c5.2-3,8.5-8.6,8.5-14.7v-120.1l-37.8,21.8Z"/>
  </g>
</svg>