<?xml version="1.0" encoding="UTF-8" standalone="no"?>
<svg
   id="Layer_1"
   data-name="Layer 1"
   version="1.1"
   viewBox="0 0 627.5 627.5"
   sodipodi:docname="Pkgserver_logo-square.svg"
   inkscape:version="1.2.1 (9c6d41e410, 2022-07-14)"
   width="627.5"
   height="627.5"
   inkscape:export-filename="Pkgserver-transparent-square-noname.png"
   inkscape:export-xdpi="96"
   inkscape:export-ydpi="96"
   xmlns:inkscape="http://www.inkscape.org/namespaces/inkscape"
   xmlns:sodipodi="http://sodipodi.sourceforge.net/DTD/sodipodi-0.dtd"
   xmlns="http://www.w3.org/2000/svg"
   xmlns:svg="http://www.w3.org/2000/svg">
  <sodipodi:namedview
     id="namedview427"
     pagecolor="#ffffff"
     bordercolor="#000000"
     borderopacity="0.25"
     inkscape:showpageshadow="2"
     inkscape:pageopacity="0.0"
     inkscape:pagecheckerboard="0"
     inkscape:deskcolor="#d1d1d1"
     showgrid="false"
     inkscape:zoom="1.1031798"
     inkscape:cx="314.09206"
     inkscape:cy="385.25"
     inkscape:window-width="1920"
     inkscape:window-height="1027"
     inkscape:window-x="-8"
     inkscape:window-y="-8"
     inkscape:window-maximized="1"
     inkscape:current-layer="Layer_1" />
  <defs
     id="defs372">
    <style
       id="style370">
      .cls-1 {
        fill: #badaff;
      }

      .cls-1, .cls-2, .cls-3, .cls-4, .cls-5, .cls-6, .cls-7 {
        stroke-width: 0px;
      }

      .cls-2 {
        fill: none;
      }

      .cls-3 {
        fill: #8ec2ff;
      }

      .cls-4 {
        fill: #4092ff;
      }

      .cls-5 {
        fill: #1d1d1b;
      }

      .cls-6 {
        fill: #fff;
      }

      .cls-7 {
        fill: #005adf;
      }
    </style>
  </defs>
  <g
     id="g481"
     transform="translate(-0.05,2.65)">
    <path
       class="cls-5"
       d="m 430.7,91.6 c 6.1,0 11.7,3.2 14.7,8.5 l 116.9,202.5 c 3,5.2 3,11.7 0,17 L 445.4,522.1 c -3,5.2 -8.6,8.5 -14.7,8.5 H 196.9 c -6.1,0 -11.7,-3.2 -14.7,-8.5 L 65.3,319.6 c -3,-5.2 -3,-11.7 0,-17 L 182.2,100.1 c 3,-5.2 8.6,-8.5 14.7,-8.5 h 233.8 m 0,-14 H 196.9 c -11,0 -21.3,5.9 -26.8,15.5 L 53.2,295.6 c -5.5,9.6 -5.5,21.4 0,31 l 116.9,202.5 c 5.5,9.6 15.8,15.5 26.8,15.5 h 233.8 c 11,0 21.3,-5.9 26.8,-15.5 L 574.4,326.6 c 5.5,-9.6 5.5,-21.4 0,-31 L 457.5,93.1 C 452,83.5 441.7,77.6 430.7,77.6 Z"
       id="path394" />
    <g
       id="g408">
      <path
         class="cls-1"
         d="m 181.4,186.9 30.5,-52.3 h 61.6 c 10.9,0 14.7,14.5 5.2,19.8 l -83,47 c -9.4,5.3 -19.8,-5.2 -14.4,-14.6 z"
         id="path396" />
      <path
         class="cls-1"
         d="m 446.3,186.9 -30.5,-52.3 h -61.6 c -10.9,0 -14.7,14.5 -5.2,19.8 l 83,47 c 9.4,5.3 19.8,-5.2 14.4,-14.6 z"
         id="path398" />
      <path
         class="cls-1"
         d="M 446.5,434.9 416,487.2 h -61.6 c -10.9,0 -14.7,-14.5 -5.2,-19.8 l 83,-47 c 9.4,-5.3 19.8,5.2 14.4,14.6 z"
         id="path400" />
      <path
         class="cls-1"
         d="m 181.5,434.9 30.5,52.3 h 61.6 c 10.9,0 14.7,-14.5 5.2,-19.8 l -83,-47 c -9.4,-5.3 -19.8,5.2 -14.4,14.6 z"
         id="path402" />
      <path
         class="cls-1"
         d="m 161.6,260.7 v 100.6 c 0,10.9 -14.3,14.7 -19.7,5.3 L 110,311.1 141.8,255.5 c 5.4,-9.4 19.8,-5.6 19.8,5.3 z"
         id="path404" />
      <path
         class="cls-1"
         d="m 466.4,260.7 v 100.6 c 0,10.9 14.3,14.7 19.7,5.3 L 518,311.1 486.2,255.5 c -5.4,-9.4 -19.8,-5.6 -19.8,5.3 z"
         id="path406" />
    </g>
    <g
       id="g424">
      <polygon
         class="cls-2"
         points="313.8,311 351.5,289.2 "
         id="polygon410" />
      <polygon
         class="cls-3"
         points="201.3,246.1 313.8,311 351.5,289.2 239.8,223.9 "
         id="polygon412" />
      <path
         class="cls-3"
         d="m 426.2,246.1 -103.9,-60 c -5.2,-3 -11.7,-3 -17,0 l -28.6,16.5 111.8,65.3 37.8,-21.8 z"
         id="path414" />
      <path
         class="cls-7"
         d="m 201.3,246 v 120.1 c 0,6.1 3.2,11.7 8.5,14.7 l 66,38.1 38,21.9 V 310.9 Z"
         id="path416" />
      <rect
         class="cls-6"
         x="348.70001"
         y="278.5"
         width="42.599998"
         transform="rotate(-30,369.96745,278.53248)"
         id="rect418"
         height="0" />
      <polygon
         class="cls-6"
         points="276.7,202.6 239.8,223.9 351.5,289.2 388.4,267.9 "
         id="polygon420" />
      <path
         class="cls-4"
         d="m 388.4,267.9 -36.9,21.3 -37.8,21.8 v 129.9 l 104,-60.1 c 5.2,-3 8.5,-8.6 8.5,-14.7 V 246 l -37.8,21.8 z"
         id="path422" />
    </g>
  </g>
</svg>
